<?xml version="1.0" encoding="UTF-8"?>
<svg version="1.1" xmlns="http://www.w3.org/2000/svg" width="344" height="344">
<path d="M0 0 C6.16105043 3.89780742 10.83921879 10.28859392 12.59765625 17.42578125 C12.875 19.625 12.875 19.625 13 23 C13.66 23 14.32 23 15 23 C21.1446975 49.3219666 22.8534835 75.41483948 21.625 102.375 C21.59422363 103.14094482 21.56344727 103.90688965 21.53173828 104.69604492 C21.2804672 109.39877608 20.38768538 113.47313121 19 118 C18.5426137 120.35038395 18.10567329 122.70482359 17.6875 125.0625 C15.99435997 134.0559615 13.28769458 142.87906694 9 151 C8.34 151 7.68 151 7 151 C6.938125 151.556875 6.87625 152.11375 6.8125 152.6875 C5.57891165 156.19848222 3.94490403 157.72996981 1 160 C-2.77350793 161.29316845 -6.19994796 161.72073797 -9.9609375 160.21484375 C-16.53457281 155.98073367 -19.85515972 149.15214192 -22.32421875 141.95703125 C-22.99689153 139.92640866 -22.99689153 139.92640866 -23.98828125 137.73046875 C-25.22958803 134.38037826 -25.87950642 131.00476593 -26.5 127.5 C-26.7371875 126.2109375 -26.974375 124.921875 -27.21875 123.59375 C-27.40087036 122.50271973 -27.40087036 122.50271973 -27.58666992 121.38964844 C-27.86999125 119.7516395 -28.1870846 118.1192184 -28.5324707 116.49316406 C-30.62387532 105.51863217 -30.26531937 94.42579726 -30.20581055 83.296875 C-30.18747274 79.74471898 -30.18530196 76.19282362 -30.18554688 72.640625 C-30.18063306 70.35937277 -30.17480533 68.07812228 -30.16796875 65.796875 C-30.16685593 64.74667175 -30.1657431 63.69646851 -30.16459656 62.61444092 C-30.11774266 55.28186154 -29.86429984 48.119196 -28 41 C-27.6669265 39.41329131 -27.34334441 37.82457185 -27.02734375 36.234375 C-26.85009766 35.34492187 -26.67285156 34.45546875 -26.49023438 33.5390625 C-26.30783203 32.61867187 -26.12542969 31.69828125 -25.9375 30.75 C-25.75123047 29.81414063 -25.56496094 28.87828125 -25.37304688 27.9140625 C-24.91449519 25.60954636 -24.45684389 23.30485519 -24 21 C-23.34 21 -22.68 21 -22 21 C-21.8453125 19.9790625 -21.8453125 19.9790625 -21.6875 18.9375 C-19.79540362 10.85308818 -15.93970911 5.23258183 -9.5625 0 C-5.90745836 -1.42635771 -3.76089979 -1.05569117 0 0 Z " fill="#282828" transform="translate(171,30)"/>
<path d="M0 0 C3.66418255 0.5456155 4.96130204 2.11654726 7.48828125 4.7734375 C8.27847656 5.58554688 9.06867188 6.39765625 9.8828125 7.234375 C11.67578125 9.3984375 11.67578125 9.3984375 11.67578125 11.3984375 C12.25328125 11.6459375 12.83078125 11.8934375 13.42578125 12.1484375 C16.00518104 13.58143738 17.73699717 15.18268426 19.67578125 17.3984375 C19.67578125 18.0584375 19.67578125 18.7184375 19.67578125 19.3984375 C20.66578125 19.7284375 21.65578125 20.0584375 22.67578125 20.3984375 C22.67578125 21.0584375 22.67578125 21.7184375 22.67578125 22.3984375 C23.27390625 22.6665625 23.87203125 22.9346875 24.48828125 23.2109375 C26.69397158 24.40831225 28.11161312 25.44322734 29.67578125 27.3984375 C29.67578125 28.3884375 29.67578125 29.3784375 29.67578125 30.3984375 C30.27261719 30.64335937 30.86945313 30.88828125 31.484375 31.140625 C34.0676948 32.6233861 35.11585726 34.04004718 36.73828125 36.5234375 C37.22425781 37.24789062 37.71023437 37.97234375 38.2109375 38.71875 C42.09552891 45.82496256 43.15514583 51.81598074 43.05078125 59.8984375 C43.06238281 60.79691406 43.07398438 61.69539063 43.0859375 62.62109375 C43.05291516 70.18320953 41.42073334 76.20490375 37.17578125 82.5859375 C35.79784871 84.68375147 34.49625536 86.7304584 33.30078125 88.94140625 C29.20138735 95.13976866 20.94629353 98.25896303 13.9296875 99.92578125 C3.22336887 101.48096079 -7.65344057 101.84128753 -17.32421875 96.3984375 C-17.32421875 95.7384375 -17.32421875 95.0784375 -17.32421875 94.3984375 C-18.04609375 94.2953125 -18.76796875 94.1921875 -19.51171875 94.0859375 C-22.65004505 93.31879107 -24.7406636 92.33610386 -27.32421875 90.3984375 C-27.68583904 89.07249645 -28.02149914 87.73905293 -28.32421875 86.3984375 C-28.9171875 86.15867187 -29.51015625 85.91890625 -30.12109375 85.671875 C-35.07025445 82.81118992 -37.47978454 75.69110331 -39.32421875 70.3984375 C-40.15493234 66.02753167 -40.3421963 61.83889315 -40.32421875 57.3984375 C-40.37191406 56.65980469 -40.41960937 55.92117188 -40.46875 55.16015625 C-40.80031875 49.03227452 -39.05693728 42.86387455 -36.32421875 37.3984375 C-35.66421875 37.3984375 -35.00421875 37.3984375 -34.32421875 37.3984375 C-34.28296875 36.7178125 -34.24171875 36.0371875 -34.19921875 35.3359375 C-32.97122914 31.21340097 -30.47498082 28.29847579 -27.32421875 25.3984375 C-26.66421875 25.3984375 -26.00421875 25.3984375 -25.32421875 25.3984375 C-24.99421875 24.4084375 -24.66421875 23.4184375 -24.32421875 22.3984375 C-23.66421875 22.3984375 -23.00421875 22.3984375 -22.32421875 22.3984375 C-22.32421875 21.7384375 -22.32421875 21.0784375 -22.32421875 20.3984375 C-20.34161449 18.71111473 -18.34098455 17.04477693 -16.32421875 15.3984375 C-15.99421875 14.7384375 -15.66421875 14.0784375 -15.32421875 13.3984375 C-14.66421875 13.3984375 -14.00421875 13.3984375 -13.32421875 13.3984375 C-12.99421875 12.4084375 -12.66421875 11.4184375 -12.32421875 10.3984375 C-11.66421875 10.3984375 -11.00421875 10.3984375 -10.32421875 10.3984375 C-9.66421875 9.0784375 -9.00421875 7.7584375 -8.32421875 6.3984375 C-7.66421875 6.3984375 -7.00421875 6.3984375 -6.32421875 6.3984375 C-5.89109375 5.4703125 -5.89109375 5.4703125 -5.44921875 4.5234375 C-3.98653819 1.76059644 -3.14637839 0.53937915 0 0 Z " fill="#242424" transform="translate(166.32421875,224.6015625)"/>
<path d="M0 0 C16.81033463 1.19238813 31.24430367 8.55981624 45 18 C45 18.66 45 19.32 45 20 C45.804375 20.268125 46.60875 20.53625 47.4375 20.8125 C48.283125 21.204375 49.12875 21.59625 50 22 C50.495 23.485 50.495 23.485 51 25 C51.639375 25.309375 52.27875 25.61875 52.9375 25.9375 C55.50051718 27.25784218 55.7407337 28.4814674 57 31 C58.32407669 31.68486725 59.65909241 32.34870203 61 33 C63.75 35.5 63.75 35.5 66 38 C66 38.66 66 39.32 66 40 C66.66 40 67.32 40 68 40 C68.4125 40.86625 68.825 41.7325 69.25 42.625 C70.89840978 45.96894925 70.89840978 45.96894925 72.875 48.75 C77.06440225 55.1573211 80.04252694 61.6218323 82 69 C82.99 70.485 82.99 70.485 84 72 C84.6328125 74.33984375 84.6328125 74.33984375 85.125 76.9375 C85.29257813 77.79214844 85.46015625 78.64679688 85.6328125 79.52734375 C86 82 86 82 86 86 C80.80357006 86.20167257 76.28336522 85.53951462 71.3125 84.125 C70.66216797 83.95097656 70.01183594 83.77695313 69.34179688 83.59765625 C66.03932366 82.68871867 62.99094403 81.68098626 60 80 C60 79.34 60 78.68 60 78 C59.13375 77.896875 58.2675 77.79375 57.375 77.6875 C53.80256818 76.95978241 51.14375739 75.82776592 48 74 C47.67 73.34 47.34 72.68 47 72 C45.00866956 70.9828456 43.00710846 69.98565493 41 69 C34.90170144 65.0331456 29.16543443 61.03269815 25 55 C25 54.34 25 53.68 25 53 C24.34 53 23.68 53 23 53 C23 52.34 23 51.68 23 51 C21.515 50.505 21.515 50.505 20 50 C18.71875 48.328125 18.71875 48.328125 17.5 46.25 C17.0978125 45.57453125 16.695625 44.8990625 16.28125 44.203125 C15.8584375 43.47609375 15.435625 42.7490625 15 42 C13.54825608 39.55475494 12.08487743 37.13059808 10.53515625 34.74609375 C7.04769057 29.27900564 4.7470869 23.96301792 2.859375 17.76171875 C2.04818766 15.00382925 2.04818766 15.00382925 0.93359375 12.44140625 C-0.00716576 9.98126108 -0.42009778 7.86265124 -0.6875 5.25 C-0.77386719 4.47140625 -0.86023437 3.6928125 -0.94921875 2.890625 C-0.96597656 2.26671875 -0.98273437 1.6428125 -1 1 C-0.67 0.67 -0.34 0.34 0 0 Z " fill="#252525" transform="translate(61,121)"/>
<path d="M0 0 C0.99 0.66 1.98 1.32 3 2 C2.46173175 13.92264163 -1.27163125 24.59972395 -7 35 C-7.66 35 -8.32 35 -9 35 C-9.04125 35.66 -9.0825 36.32 -9.125 37 C-10.22172124 40.7601871 -12.18322105 43.11580677 -14.625 46.1328125 C-16.19030864 48.05775029 -16.19030864 48.05775029 -17 51 C-18.6396721 52.36639342 -20.31110128 53.6949419 -22 55 C-24.47489257 57.41302026 -26.88407566 59.8807184 -29.29296875 62.359375 C-41.21101824 73.98506253 -55.63937076 82.53909766 -72 86 C-72.6909375 86.185625 -73.381875 86.37125 -74.09375 86.5625 C-76.74146373 87.170172 -79.2950141 87.06147695 -82 87 C-83.31246762 83.32685238 -82.67633026 80.77881467 -81.6875 77.0625 C-81.42324219 76.04285156 -81.15898437 75.02320313 -80.88671875 73.97265625 C-80.0684208 71.22937545 -79.10825182 68.63718698 -78 66 C-77.67 65.175 -77.34 64.35 -77 63.5 C-76 61 -75 58.5 -74 56 C-73.34 56 -72.68 56 -72 56 C-71.72736328 55.04287109 -71.72736328 55.04287109 -71.44921875 54.06640625 C-71.19785156 53.24011719 -70.94648438 52.41382813 -70.6875 51.5625 C-70.44386719 50.73878906 -70.20023438 49.91507813 -69.94921875 49.06640625 C-69.47935547 48.04353516 -69.47935547 48.04353516 -69 47 C-67.515 46.505 -67.515 46.505 -66 46 C-64.89363605 43.60931266 -64.89363605 43.60931266 -64 41 C-63.34 40.01 -62.68 39.02 -62 38 C-61.34 38 -60.68 38 -60 38 C-59.67 36.68 -59.34 35.36 -59 34 C-58.34 34 -57.68 34 -57 34 C-57 33.34 -57 32.68 -57 32 C-55.625 30.375 -55.625 30.375 -54 29 C-53.34 29 -52.68 29 -52 29 C-51.67 28.01 -51.34 27.02 -51 26 C-50.01 26 -49.02 26 -48 26 C-47.71125 25.38125 -47.4225 24.7625 -47.125 24.125 C-46 22 -46 22 -44 20 C-43.01 20 -42.02 20 -41 20 C-41 19.34 -41 18.68 -41 18 C-38 16 -38 16 -35 16 C-35 15.34 -35 14.68 -35 14 C-33.08850332 12.9901527 -31.17058431 11.99245505 -29.25 11 C-28.18265625 10.443125 -27.1153125 9.88625 -26.015625 9.3125 C-23 8 -23 8 -19 8 C-19 7.34 -19 6.68 -19 6 C-18.45996338 5.85377197 -17.91992676 5.70754395 -17.36352539 5.55688477 C-14.92889078 4.89556445 -12.49569321 4.22910312 -10.0625 3.5625 C-9.21236328 3.33240234 -8.36222656 3.10230469 -7.48632812 2.86523438 C-6.67744141 2.64287109 -5.86855469 2.42050781 -5.03515625 2.19140625 C-4.2862915 1.98717041 -3.53742676 1.78293457 -2.76586914 1.57250977 C-0.99456078 1.14608201 -0.99456078 1.14608201 0 0 Z " fill="#292929" transform="translate(269,120)"/>
<path d="M0 0 C2.35143998 0.29356667 4.70628228 0.56013234 7.0625 0.8125 C15.05996909 1.78287229 23.44005585 3.72264371 29 10 C29.625 13.4375 29.625 13.4375 29 17 C26.949949 19.94694831 25.43671338 21.64148557 21.88671875 22.52734375 C19.9345065 22.78047251 17.96601462 22.90003316 16 23 C16 23.66 16 24.32 16 25 C-4.04752312 30.78293936 -30.35131825 30.97084223 -49.109375 21.28125 C-51 20 -51 20 -53 17 C-53.375 13.5 -53.375 13.5 -53 10 C-51.125 8.0625 -51.125 8.0625 -49 7 C-48.34 7 -47.68 7 -47 7 C-47 6.34 -47 5.68 -47 5 C-41.39072957 2.72958101 -36.10054942 1.22747663 -30.125 0.3125 C-29.31361572 0.18584961 -28.50223145 0.05919922 -27.66625977 -0.07128906 C-6.27134151 -3.13567075 -6.27134151 -3.13567075 0 0 Z " fill="#2A2A2A" transform="translate(241,212)"/>
<path d="M0 0 C1.010625 0.61875 2.02125 1.2375 3.0625 1.875 C5 4 5 4 5.5 6.9375 C4.93155067 10.41925212 4.10026177 12.17289605 2 15 C-15.7708553 24.8954259 -40.59379444 23.96945114 -60 20 C-63.67124035 18.87925703 -67.22348675 17.57646862 -70.75 16.0625 C-71.88695313 15.58490234 -71.88695313 15.58490234 -73.046875 15.09765625 C-75 14 -75 14 -77 11 C-77.33333333 4.66666667 -77.33333333 4.66666667 -76 2 C-69.9848468 -1.72366627 -63.93301475 -3.86289726 -57 -5 C-56.04609375 -5.18433594 -55.0921875 -5.36867187 -54.109375 -5.55859375 C-37.6130657 -8.50436327 -14.87464831 -9.16166863 0 0 Z " fill="#282828" transform="translate(140,218)"/>
<path d="M0 0 C1.010625 0.61875 2.02125 1.2375 3.0625 1.875 C5 4 5 4 5.5 6.9375 C4.93155067 10.41925212 4.10026177 12.17289605 2 15 C-14.88239543 24.40070076 -36.42134133 23.18350749 -55 21 C-55 20.67 -55 20.34 -55 20 C-53.89487061 19.98541748 -52.78974121 19.97083496 -51.65112305 19.95581055 C-47.55264861 19.89785734 -43.45472533 19.82062481 -39.35668945 19.73754883 C-37.58269188 19.70428536 -35.8085881 19.67625782 -34.03442383 19.65356445 C-31.48472824 19.62004398 -28.93600708 19.56773135 -26.38671875 19.51171875 C-25.19594978 19.50213387 -25.19594978 19.50213387 -23.98112488 19.49235535 C-19.77035176 19.48170882 -19.77035176 19.48170882 -16.21801758 17.49926758 C-15.81607178 17.00450928 -15.41412598 16.50975098 -15 16 C-13.0046008 15.74252914 -11.00770582 15.48941544 -9.00390625 15.30859375 C-6.17735144 14.87331533 -4.25809656 13.71067922 -2 12 C-1.67 11.34 -1.34 10.68 -1 10 C-0.01 9.67 0.98 9.34 2 9 C1.65060634 6.56469493 1.65060634 6.56469493 0 4 C-4.05943663 1.58499269 -8.40735101 0.04855 -13 -1 C-13 -1.66 -13 -2.32 -13 -3 C-34.78 -3.495 -34.78 -3.495 -57 -4 C-57 -4.33 -57 -4.66 -57 -5 C-39.64426025 -8.32849803 -15.81102841 -9.7384086 0 0 Z " fill="#E3E3E3" transform="translate(140,218)"/>
<path d="M0 0 C16.81033463 1.19238813 31.24430367 8.55981624 45 18 C45 18.66 45 19.32 45 20 C45.804375 20.268125 46.60875 20.53625 47.4375 20.8125 C48.283125 21.204375 49.12875 21.59625 50 22 C50.495 23.485 50.495 23.485 51 25 C50.34 25 49.68 25 49 25 C49 24.34 49 23.68 49 23 C48.34386719 22.76410156 47.68773437 22.52820313 47.01171875 22.28515625 C43.10520799 20.61817565 39.49445431 18.54671003 35.8125 16.4375 C34.38170275 15.6233598 32.95072173 14.80954248 31.51953125 13.99609375 C30.89151611 13.63700928 30.26350098 13.2779248 29.61645508 12.90795898 C28.42812119 12.24047466 27.21907268 11.60953634 26 11 C26 10.34 26 9.68 26 9 C24.77023438 8.73445312 23.54046875 8.46890625 22.2734375 8.1953125 C20.64058755 7.83871309 19.00777713 7.48193267 17.375 7.125 C16.56675781 6.95097656 15.75851563 6.77695313 14.92578125 6.59765625 C10.51437032 5.62929775 6.25940436 4.5300773 2 3 C4.02074082 11.36518966 6.19969527 19.17348234 10.046875 26.92578125 C11 29 11 29 11 31 C11.66 31 12.32 31 13 31 C13.86366822 32.78710586 14.71568594 34.5798465 15.5625 36.375 C16.03816406 37.37273437 16.51382813 38.37046875 17.00390625 39.3984375 C17.33261719 40.25695312 17.66132812 41.11546875 18 42 C17.67 42.66 17.34 43.32 17 44 C13.78193604 40.35850657 11.7000321 37.56883628 10 33 C9.22258524 31.59617911 8.42901676 30.20125622 7.625 28.8125 C2.64479468 19.89514122 -0.21075346 11.26020508 -1 1 C-0.67 0.67 -0.34 0.34 0 0 Z " fill="#989898" transform="translate(61,121)"/>
<path d="M0 0 C0.66 0 1.32 0 2 0 C8.1446975 26.3219666 9.8534835 52.41483948 8.625 79.375 C8.59422363 80.14094482 8.56344727 80.90688965 8.53173828 81.69604492 C8.28040972 86.39985182 7.38915223 90.47239273 6 95 C5.21283735 98.81773885 4.49631548 102.64474423 3.78125 106.4765625 C3.10660234 109.51922343 2.26166457 112.16125472 1 115 C0.67 115 0.34 115 0 115 C0.25738911 108.32075257 1.1554576 102.27407668 3.01171875 95.84765625 C5.9222761 84.46718523 5.63549182 72.87376401 5.57641602 61.20068359 C5.56259974 57.4024189 5.59667201 53.60665015 5.63476562 49.80859375 C5.6783651 35.03641998 4.36436215 21.47944168 0.45005798 7.21279907 C-0.04876413 4.76024149 -0.07548998 2.49623178 0 0 Z " fill="#BDBDBD" transform="translate(184,53)"/>
<path d="M0 0 C6.09724735 3.8574422 10.69509654 10.18976762 12.59765625 17.203125 C12.875 19.125 12.875 19.125 13 22 C8.82366754 17.05027263 5.53033129 11.66391002 2.3125 6.0625 C1.16435281 3.86780317 1.16435281 3.86780317 -1 3 C-5.06823892 2.5021473 -5.06823892 2.5021473 -9 3 C-21.09209113 13.28757907 -22.64422063 28.64065407 -24.5168457 43.45141602 C-25.02970495 46.15669025 -25.90035179 48.48170652 -27 51 C-27.66 51 -28.32 51 -29 51 C-29.08105145 47.43373609 -28.91225382 44.43145014 -28 41 C-27.6669265 39.41329131 -27.34334441 37.82457185 -27.02734375 36.234375 C-26.85009766 35.34492187 -26.67285156 34.45546875 -26.49023438 33.5390625 C-26.30783203 32.61867187 -26.12542969 31.69828125 -25.9375 30.75 C-25.75123047 29.81414063 -25.56496094 28.87828125 -25.37304688 27.9140625 C-24.91449519 25.60954636 -24.45684389 23.30485519 -24 21 C-23.34 21 -22.68 21 -22 21 C-21.896875 20.319375 -21.79375 19.63875 -21.6875 18.9375 C-19.79540362 10.85308818 -15.93970911 5.23258183 -9.5625 0 C-5.90745836 -1.42635771 -3.76089979 -1.05569117 0 0 Z " fill="#C5C5C5" transform="translate(171,30)"/>
<path d="M0 0 C1.32 0.66 2.64 1.32 4 2 C4.41454364 6.22834517 4.46495343 8.33162944 2 11.875 C-1.87218174 14.6177954 -4.30964199 14.76150722 -9 15 C-9 15.66 -9 16.32 -9 17 C-26.01369512 21.90779667 -49.1108795 22.8721344 -66 17 C-66.66 16.34 -67.32 15.68 -68 15 C-67.13246094 15.0721875 -66.26492187 15.144375 -65.37109375 15.21875 C-55.96020544 15.89162384 -46.56197245 16.1351145 -37.12796021 16.17724609 C-35.76406721 16.18401709 -34.40018638 16.19420364 -33.03634644 16.20800781 C-23.04206428 16.30102484 -13.43036533 16.2731499 -4.4375 11.4375 C-3.61121094 11.00308594 -2.78492188 10.56867188 -1.93359375 10.12109375 C-0.05950043 9.14518285 -0.05950043 9.14518285 1 8 C1.1613058 4.93518979 0.98150241 2.94450722 0 0 Z " fill="#9E9E9E" transform="translate(266,220)"/>
<path d="M0 0 C0.495 1.485 0.495 1.485 1 3 C-0.3984375 5.375 -0.3984375 5.375 -2.375 8 C-5.17019581 11.74116756 -5.17019581 11.74116756 -7 16 C-8.6396721 17.36639342 -10.31110128 18.6949419 -12 20 C-14.47489257 22.41302026 -16.88407566 24.8807184 -19.29296875 27.359375 C-31.21101824 38.98506253 -45.63937076 47.53909766 -62 51 C-62.71671875 51.18691406 -63.4334375 51.37382812 -64.171875 51.56640625 C-66 52 -66 52 -68 52 C-68 51.34 -68 50.68 -68 50 C-65.36 49.67 -62.72 49.34 -60 49 C-60 48.34 -60 47.68 -60 47 C-59.01 46.69707031 -58.02 46.39414063 -57 46.08203125 C-50.35999156 43.99368218 -44.3276924 42.02547749 -38.578125 37.98828125 C-37 37 -37 37 -34.125 36.4375 C-33.42375 36.293125 -32.7225 36.14875 -32 36 C-30.8499169 34.03327085 -30.8499169 34.03327085 -30 32 C-29.01 31.67 -28.02 31.34 -27 31 C-25.80924088 29.87035949 -24.62561944 28.73169006 -23.48974609 27.546875 C-21.79878505 25.79106884 -20.05377766 24.10008667 -18.30078125 22.40625 C-16.97121896 21.10430473 -15.64179451 19.80221868 -14.3125 18.5 C-13.63638672 17.84902344 -12.96027344 17.19804687 -12.26367188 16.52734375 C-8.90321651 13.21704444 -6.34155019 10.64192826 -5 6 C-2.375 1.1875 -2.375 1.1875 0 0 Z " fill="#BBBBBB" transform="translate(259,155)"/>
<path d="M0 0 C0.99 0.66 1.98 1.32 3 2 C2.46173175 13.92264163 -1.27163125 24.59972395 -7 35 C-7.66 35 -8.32 35 -9 35 C-8.08710244 29.70279179 -6.9347054 25.81303019 -4.01953125 21.23828125 C-1.60170368 15.93017705 -0.97315736 9.7283581 0 4 C-12.69041839 7.12224579 -24.33419249 10.69937457 -35.203125 18.21484375 C-38 20 -38 20 -41 20 C-41 19.34 -41 18.68 -41 18 C-38 16 -38 16 -35 16 C-35 15.34 -35 14.68 -35 14 C-33.08850332 12.9901527 -31.17058431 11.99245505 -29.25 11 C-28.18265625 10.443125 -27.1153125 9.88625 -26.015625 9.3125 C-23 8 -23 8 -19 8 C-19 7.34 -19 6.68 -19 6 C-18.45996338 5.85377197 -17.91992676 5.70754395 -17.36352539 5.55688477 C-14.92889078 4.89556445 -12.49569321 4.22910312 -10.0625 3.5625 C-9.21236328 3.33240234 -8.36222656 3.10230469 -7.48632812 2.86523438 C-6.67744141 2.64287109 -5.86855469 2.42050781 -5.03515625 2.19140625 C-3.91185913 1.88505249 -3.91185913 1.88505249 -2.76586914 1.57250977 C-0.99456078 1.14608201 -0.99456078 1.14608201 0 0 Z " fill="#AAAAAA" transform="translate(269,120)"/>
<path d="M0 0 C3.66418255 0.5456155 4.96130204 2.11654726 7.48828125 4.7734375 C8.27847656 5.58554688 9.06867188 6.39765625 9.8828125 7.234375 C11.67578125 9.3984375 11.67578125 9.3984375 11.67578125 11.3984375 C12.25328125 11.6459375 12.83078125 11.8934375 13.42578125 12.1484375 C16.00518104 13.58143738 17.73699717 15.18268426 19.67578125 17.3984375 C19.67578125 18.0584375 19.67578125 18.7184375 19.67578125 19.3984375 C20.66578125 19.7284375 21.65578125 20.0584375 22.67578125 20.3984375 C22.67578125 21.0584375 22.67578125 21.7184375 22.67578125 22.3984375 C23.27390625 22.6665625 23.87203125 22.9346875 24.48828125 23.2109375 C26.64802933 24.38337217 28.03368381 25.59213032 29.67578125 27.3984375 C29.18078125 28.8834375 29.18078125 28.8834375 28.67578125 30.3984375 C25.4219238 28.81547982 23.91964294 27.92099826 22.36328125 24.5859375 C20.36455008 20.8105564 18.23743927 19.43725807 14.80078125 17.04296875 C11.871427 14.77595011 9.64442561 12.0952887 7.31640625 9.23046875 C5.70286481 7.30156256 5.70286481 7.30156256 3.47265625 5.78515625 C2.58320313 5.09873047 2.58320313 5.09873047 1.67578125 4.3984375 C1.67578125 3.7384375 1.67578125 3.0784375 1.67578125 2.3984375 C0.68578125 2.3984375 -0.30421875 2.3984375 -1.32421875 2.3984375 C-1.65421875 3.3884375 -1.98421875 4.3784375 -2.32421875 5.3984375 C-4.86200748 8.13657797 -7.21315435 10.32439457 -10.32421875 12.3984375 C-10.65421875 13.3884375 -10.98421875 14.3784375 -11.32421875 15.3984375 C-16.69564732 19.3984375 -16.69564732 19.3984375 -19.32421875 19.3984375 C-18.32524162 16.40150612 -17.67291622 15.37134337 -15.32421875 13.3984375 C-14.66421875 13.3984375 -14.00421875 13.3984375 -13.32421875 13.3984375 C-12.99421875 12.4084375 -12.66421875 11.4184375 -12.32421875 10.3984375 C-11.66421875 10.3984375 -11.00421875 10.3984375 -10.32421875 10.3984375 C-9.66421875 9.0784375 -9.00421875 7.7584375 -8.32421875 6.3984375 C-7.66421875 6.3984375 -7.00421875 6.3984375 -6.32421875 6.3984375 C-5.89109375 5.4703125 -5.89109375 5.4703125 -5.44921875 4.5234375 C-3.98653819 1.76059644 -3.14637839 0.53937915 0 0 Z " fill="#B6B6B6" transform="translate(166.32421875,224.6015625)"/>
<path d="M0 0 C-0.3451136 2.75495853 -0.73944652 3.78072763 -2.8984375 5.59765625 C-14.63869503 12.54181488 -26.48357983 14.55798737 -40 13 C-43.58898352 12.04155469 -46.76507143 10.82066331 -50 9 C-50 8.34 -50 7.68 -50 7 C-50.99 6.67 -51.98 6.34 -53 6 C-50.02579677 6.4150051 -47.38815271 6.8337341 -44.61816406 8.02026367 C-40.10986648 9.70730192 -35.51358196 9.32763209 -30.75 9.3125 C-29.25146484 9.33666992 -29.25146484 9.33666992 -27.72265625 9.36132812 C-18.90416486 9.36709184 -11.67215072 8.08343154 -5 2 C-2 0 -2 0 0 0 Z " fill="#676767" transform="translate(199,312)"/>
<path d="M0 0 C0.33 0 0.66 0 1 0 C1.25 2.25 1.25 2.25 1 5 C-4.57127432 11.6701954 -14.01102829 13.46485412 -22.29296875 14.69140625 C-34.16685585 15.67985418 -46.17510742 15.38975273 -58 14 C-58 13.67 -58 13.34 -58 13 C-56.34230591 12.97812622 -56.34230591 12.97812622 -54.65112305 12.95581055 C-50.55264861 12.89785734 -46.45472533 12.82062481 -42.35668945 12.73754883 C-40.58269188 12.70428536 -38.8085881 12.67625782 -37.03442383 12.65356445 C-34.48472824 12.62004398 -31.93600708 12.56773135 -29.38671875 12.51171875 C-28.19594978 12.50213387 -28.19594978 12.50213387 -26.98112488 12.49235535 C-22.77035176 12.48170882 -22.77035176 12.48170882 -19.21801758 10.49926758 C-18.81607178 10.00450928 -18.41412598 9.50975098 -18 9 C-16.0046008 8.74252914 -14.00770582 8.48941544 -12.00390625 8.30859375 C-9.17735144 7.87331533 -7.25809656 6.71067922 -5 5 C-4.67 4.34 -4.34 3.68 -4 3 C-3.01 2.67 -2.02 2.34 -1 2 C-0.67 1.34 -0.34 0.68 0 0 Z " fill="#BEBEBE" transform="translate(143,225)"/>
<path d="M0 0 C1.18505127 -0.0009668 1.18505127 -0.0009668 2.39404297 -0.00195312 C8.04180251 0.05215126 8.04180251 0.05215126 10.3125 1.1875 C12.66393998 1.48106667 15.01878228 1.74763234 17.375 2 C23.44286353 2.72634229 29.11169697 3.80829803 34.3125 7.1875 C34.8075 8.1775 34.8075 8.1775 35.3125 9.1875 C30.52154505 8.6032372 26.72861682 7.08012149 22.3125 5.1875 C17.28203806 4.09748931 12.31895772 3.97525125 7.1953125 3.87109375 C6.33815643 3.85031265 5.48100037 3.82953156 4.59786987 3.80812073 C1.87782286 3.74308739 -0.84231517 3.68395659 -3.5625 3.625 C-5.41407166 3.58177076 -7.26563434 3.5381551 -9.1171875 3.49414062 C-13.64053331 3.38745379 -18.16397007 3.28605806 -22.6875 3.1875 C-22.6875 2.8575 -22.6875 2.5275 -22.6875 2.1875 C-15.06890913 0.67993432 -7.75179429 -0.00622259 0 0 Z " fill="#CBCBCB" transform="translate(230.6875,210.8125)"/>
<path d="M0 0 C0.93045933 2.55144824 1.08564091 3.74006478 0.22265625 6.359375 C-0.35162109 7.54273438 -0.35162109 7.54273438 -0.9375 8.75 C-1.31777344 9.54921875 -1.69804687 10.3484375 -2.08984375 11.171875 C-2.39019531 11.77515625 -2.69054687 12.3784375 -3 13 C-3.66 13 -4.32 13 -5 13 C-5.0928125 13.8353125 -5.0928125 13.8353125 -5.1875 14.6875 C-6.42108835 18.19848222 -8.05509597 19.72996981 -11 22 C-14.77350793 23.29316845 -18.19994796 23.72073797 -21.9609375 22.21484375 C-27.66404099 18.54144739 -31.29179112 13.05074594 -32.8125 6.5 C-32.874375 5.675 -32.93625 4.85 -33 4 C-30 5 -30 5 -28.5 7.65234375 C-27.7575 9.27849609 -27.7575 9.27849609 -27 10.9375 C-24.90448246 15.70909479 -24.90448246 15.70909479 -21 19 C-19.04620501 19.27785432 -19.04620501 19.27785432 -17 19.1875 C-16.319375 19.18105469 -15.63875 19.17460937 -14.9375 19.16796875 C-12.78241791 19.05697746 -12.78241791 19.05697746 -10 18 C-8.44770591 15.69052442 -8.44770591 15.69052442 -7.0625 12.875 C-6.54558594 11.88628906 -6.02867187 10.89757812 -5.49609375 9.87890625 C-5.00238281 8.92886719 -4.50867188 7.97882813 -4 7 C-2.68830829 4.65339557 -1.3449384 2.327778 0 0 Z " fill="#C5C5C5" transform="translate(183,168)"/>
<path d="M0 0 C5.28101663 5.28101663 6 11.80360378 6 19 C0.80357006 19.20167257 -3.71663478 18.53951462 -8.6875 17.125 C-9.66299805 16.86396484 -9.66299805 16.86396484 -10.65820312 16.59765625 C-13.96067634 15.68871867 -17.00905597 14.68098626 -20 13 C-20 12.34 -20 11.68 -20 11 C-14.10793218 11.98977424 -9.34641219 13.26738932 -4 16 C-0.26228166 16.7136724 -0.26228166 16.7136724 3 17 C2.7834375 16.10796875 2.566875 15.2159375 2.34375 14.296875 C2.0653125 13.12640625 1.786875 11.9559375 1.5 10.75 C1.2215625 9.58984375 0.943125 8.4296875 0.65625 7.234375 C0 4 0 4 0 0 Z " fill="#A0A0A0" transform="translate(141,188)"/>
<path d="M0 0 C-1.32 0.33 -2.64 0.66 -4 1 C-4 1.66 -4 2.32 -4 3 C-4.68707031 3.18175781 -5.37414062 3.36351562 -6.08203125 3.55078125 C-7.43361328 3.92783203 -7.43361328 3.92783203 -8.8125 4.3125 C-10.15248047 4.67794922 -10.15248047 4.67794922 -11.51953125 5.05078125 C-14.09793657 6.03747809 -15.33691633 6.82023014 -17 9 C-17.66666667 12 -17.66666667 12 -17 15 C-13.48425213 17.55164882 -9.80291574 18.87599388 -5.6875 20.1875 C-4.61886719 20.53167969 -3.55023438 20.87585938 -2.44921875 21.23046875 C-1.23685547 21.61138672 -1.23685547 21.61138672 0 22 C0 22.66 0 23.32 0 24 C-6.80423303 23.62198705 -12.24231311 21.702899 -18 18 C-20.44576827 14.33134759 -20.23607254 12.32799657 -20 8 C-18.61346897 5.22693794 -16.89021356 4.78003122 -14.125 3.4375 C-12.79855469 2.78587891 -12.79855469 2.78587891 -11.4453125 2.12109375 C-7.41570874 0.27365561 -4.40332792 -0.09785173 0 0 Z " fill="#B6B6B6" transform="translate(83,214)"/>
<path d="M0 0 C5.58698145 0.45608012 9.20823924 2.1187276 14 5 C15.32098216 5.76411519 16.64260586 6.52712231 17.96484375 7.2890625 C19.28953214 8.06690908 20.61374919 8.8455589 21.9375 9.625 C22.62134766 10.01945313 23.30519531 10.41390625 24.00976562 10.8203125 C25.70747578 11.82435287 27.35887347 12.90591565 29 14 C29 14.66 29 15.32 29 16 C29.804375 16.268125 30.60875 16.53625 31.4375 16.8125 C32.283125 17.204375 33.12875 17.59625 34 18 C34.495 19.485 34.495 19.485 35 21 C34.34 21 33.68 21 33 21 C33 20.34 33 19.68 33 19 C32.34386719 18.76410156 31.68773438 18.52820313 31.01171875 18.28515625 C27.10520799 16.61817565 23.49445431 14.54671003 19.8125 12.4375 C18.38170275 11.6233598 16.95072173 10.80954248 15.51953125 9.99609375 C14.89151611 9.63700928 14.26350098 9.2779248 13.61645508 8.90795898 C12.42812119 8.24047466 11.21907268 7.60953634 10 7 C10 6.34 10 5.68 10 5 C6.7 4.01 3.4 3.02 0 2 C0 1.34 0 0.68 0 0 Z " fill="#A8A8A8" transform="translate(77,125)"/>
<path d="M0 0 C3.81936528 1.55603771 6.26044438 3.95604931 9 7 C9 7.66 9 8.32 9 9 C9.66 9 10.32 9 11 9 C11.4125 9.86625 11.825 10.7325 12.25 11.625 C13.89840978 14.96894925 13.89840978 14.96894925 15.875 17.75 C17.66143545 20.48219539 19.23617161 23.17596281 20.75 26.0625 C21.17796875 26.87847656 21.6059375 27.69445312 22.046875 28.53515625 C23.07858692 31.20323093 23.18190707 33.16528148 23 36 C22.731875 35.4225 22.46375 34.845 22.1875 34.25 C21.09296576 31.99384183 21.09296576 31.99384183 19.5625 30.25 C18.07977514 28.1148762 17.4342151 26.49928899 16.625 24.0625 C15.22956117 20.05432465 13.04037426 17.96036442 10 15 C9.1875 12.1875 9.1875 12.1875 9 10 C8.34 10 7.68 10 7 10 C7 9.34 7 8.68 7 8 C6.34 8 5.68 8 5 8 C4.731875 7.195625 4.46375 6.39125 4.1875 5.5625 C3.795625 4.716875 3.40375 3.87125 3 3 C2.01 2.67 1.02 2.34 0 2 C0 1.34 0 0.68 0 0 Z " fill="#B8B8B8" transform="translate(118,152)"/>
<path d="M0 0 C-2.27729337 2.61925116 -4.11892468 3.55983026 -7.4375 4.5 C-10.85122531 5.54739299 -13.23959368 6.6812587 -16 9 C-16.66 9 -17.32 9 -18 9 C-17.49019669 12.77254453 -16.79299818 14.44987123 -14 17 C-14 17.66 -14 18.32 -14 19 C-12.68 19.66 -11.36 20.32 -10 21 C-13.43533844 20.70554242 -15.02298284 19.98263518 -17.8125 17.875 C-20 15 -20 15 -20.5625 11.375 C-20 8 -20 8 -18.125 6.0625 C-16 5 -16 5 -14 5 C-14 4.34 -14 3.68 -14 3 C-9.07015675 0.96006486 -5.42039575 -0.40652968 0 0 Z " fill="#B8B8B8" transform="translate(208,214)"/>
<path d="M0 0 C6.09724735 3.8574422 10.69509654 10.18976762 12.59765625 17.203125 C12.875 19.125 12.875 19.125 13 22 C8.82366754 17.05027263 5.53033129 11.66391002 2.3125 6.0625 C1.16435281 3.86780317 1.16435281 3.86780317 -1 3 C-7.08516056 2.76666713 -7.08516056 2.76666713 -13 4 C-8.41636849 -0.73641923 -6.63193 -1.54745033 0 0 Z " fill="#CDCDCD" transform="translate(171,30)"/>
<path d="M0 0 C0.66 0 1.32 0 2 0 C3.52786993 3.43617333 4.24902884 6.25342176 4.4375 10 C4.83832489 15.57373478 6.04793002 20.75892847 7.4765625 26.15234375 C7.98464675 28.91647374 7.94196405 30.39389947 7 33 C4.73486225 28.12172847 3.28545712 23.50204373 2.375 18.1875 C2.18780396 17.14625977 2.18780396 17.14625977 1.99682617 16.08398438 C1.06326608 10.74652334 0.37695634 5.40737377 0 0 Z " fill="#B9B9B9" transform="translate(142,139)"/>
<path d="M0 0 C0.66 0 1.32 0 2 0 C2.08811914 3.33316277 2.14076197 6.66602047 2.1875 10 C2.21263672 10.93457031 2.23777344 11.86914062 2.26367188 12.83203125 C2.34671086 20.74841474 0.76934901 26.68850641 -3.5625 33.4375 C-3.97628906 34.09621094 -4.39007813 34.75492187 -4.81640625 35.43359375 C-6 37 -6 37 -8 38 C-7.731875 37.34 -7.46375 36.68 -7.1875 36 C-5.74294953 32.35060933 -4.37128822 28.67754567 -3 25 C-2.34 25 -1.68 25 -1 25 C-0.67 16.75 -0.34 8.5 0 0 Z " fill="#A3A3A3" transform="translate(207,274)"/>
<path d="M0 0 C1.32 0.66 2.64 1.32 4 2 C4.41454364 6.22834517 4.46495343 8.33162944 2 11.875 C-1.87218174 14.6177954 -4.30964199 14.76150722 -9 15 C-9 15.66 -9 16.32 -9 17 C-12.96 17.495 -12.96 17.495 -17 18 C-15.36826905 14.73653811 -11.82587436 14.21736218 -8.5625 13 C-3.37135795 11.20095391 -3.37135795 11.20095391 1 8 C1.23779528 4.9086614 0.98965019 2.96895056 0 0 Z " fill="#A1A1A1" transform="translate(266,220)"/>
<path d="M0 0 C-0.3451136 2.75495853 -0.73944652 3.78072763 -2.8984375 5.59765625 C-16.99467802 13.93533795 -16.99467802 13.93533795 -24.3203125 12.56640625 C-24.87460938 12.37949219 -25.42890625 12.19257813 -26 12 C-22.15922483 10.28390897 -18.3998822 8.78951602 -14.375 7.5625 C-10.56521672 6.33144758 -7.98640569 4.7228993 -5 2 C-2 0 -2 0 0 0 Z " fill="#A3A3A3" transform="translate(199,312)"/>
<path d="M0 0 C2.4375 0.8125 2.4375 0.8125 5 2 C5.33 2.99 5.66 3.98 6 5 C8.8201938 6.71226052 11.92955871 7.8059395 15 9 C15 9.66 15 10.32 15 11 C15.680625 11.2475 16.36125 11.495 17.0625 11.75 C21.4057192 13.59817838 25.63423737 15.63423737 29 19 C24.44287564 18.4574852 20.97431766 17.3106498 17 15 C16.67 14.34 16.34 13.68 16 13 C14.00464831 11.9907569 12.00377528 10.99241353 10 10 C8.01390524 8.6439588 6.05453207 7.24788361 4.125 5.8125 C3.15820312 5.09707031 2.19140625 4.38164062 1.1953125 3.64453125 C0.47085938 3.10183594 -0.25359375 2.55914062 -1 2 C-0.67 1.34 -0.34 0.68 0 0 Z " fill="#B8B8B8" transform="translate(92,180)"/>
<path d="M0 0 C0.99 0.33 1.98 0.66 3 1 C2.34 1 1.68 1 1 1 C1 1.66 1 2.32 1 3 C-0.08539063 3.53109375 -1.17078125 4.0621875 -2.2890625 4.609375 C-3.73448239 5.3226991 -5.17978889 6.03625301 -6.625 6.75 C-7.33785156 7.09804687 -8.05070313 7.44609375 -8.78515625 7.8046875 C-12.11921784 9.45642443 -15.28653137 11.12708044 -18.3359375 13.265625 C-21 15 -21 15 -24 15 C-24 14.34 -24 13.68 -24 13 C-21 11 -21 11 -18 11 C-18 10.34 -18 9.68 -18 9 C-16.08850332 7.9901527 -14.17058431 6.99245505 -12.25 6 C-11.18265625 5.443125 -10.1153125 4.88625 -9.015625 4.3125 C-6 3 -6 3 -2 3 C-2 2.34 -2 1.68 -2 1 C-1.34 0.67 -0.68 0.34 0 0 Z " fill="#CBCBCB" transform="translate(252,125)"/>
<path d="M0 0 C0.33 0 0.66 0 1 0 C1.36576193 3.29185738 1.3221413 4.58581832 -0.75 7.25 C-4.56475676 10.21703304 -8.51711704 10.20238934 -13.25 10.5625 C-14.32765625 10.64628906 -15.4053125 10.73007813 -16.515625 10.81640625 C-17.33546875 10.87699219 -18.1553125 10.93757812 -19 11 C-18.67 10.34 -18.34 9.68 -18 9 C-16.02605218 8.76970609 -14.05158648 8.54255178 -12.07421875 8.34375 C-9.22603268 7.87173423 -7.28350664 6.72992927 -5 5 C-4.67 4.34 -4.34 3.68 -4 3 C-3.01 2.67 -2.02 2.34 -1 2 C-0.67 1.34 -0.34 0.68 0 0 Z " fill="#676767" transform="translate(143,225)"/>
<path d="M0 0 C0.66 0 1.32 0 2 0 C1.51928438 6.06649576 0.15614116 10.58425147 -2.5625 16 C-3.0565332 17.01900391 -3.0565332 17.01900391 -3.56054688 18.05859375 C-4.36337283 19.71078629 -5.18021784 21.35615484 -6 23 C-6.66 23 -7.32 23 -8 23 C-7.21851735 18.46534407 -6.41979571 14.33876983 -4 10.375 C-1.89722363 6.82656488 -0.97163912 3.96752642 0 0 Z " fill="#B7B7B7" transform="translate(268,132)"/>
<path d="M0 0 C6.66826026 0.02732894 11.36255288 0.98189626 16.5703125 5.30078125 C18 7 18 7 18.5 10.375 C18.335 11.24125 18.17 12.1075 18 13 C17.67 12.01 17.34 11.02 17 10 C16.34 10 15.68 10 15 10 C14.34 9.236875 13.68 8.47375 13 7.6875 C9.49765351 3.96295026 4.8267651 3.15280021 0 2 C0 1.34 0 0.68 0 0 Z " fill="#B8B8B8" transform="translate(127,215)"/>
<path d="M0 0 C0.33 0 0.66 0 1 0 C1.4243106 7.98332528 0.75778453 15.43506814 -2 23 C-2.66 23.33 -3.32 23.66 -4 24 C-3.57258771 15.6875679 -2.25809954 8.0098625 0 0 Z " fill="#8F8F8F" transform="translate(188,144)"/>
<path d="M0 0 C0.99 0.33 1.98 0.66 3 1 C2.21625 1.763125 1.4325 2.52625 0.625 3.3125 C-2.07257717 5.90891805 -2.07257717 5.90891805 -4 9 C-5.175625 9.680625 -5.175625 9.680625 -6.375 10.375 C-9.32672972 12.20226126 -10.86558598 14.29640891 -13 17 C-13.99 17.33 -14.98 17.66 -16 18 C-15.67 16.68 -15.34 15.36 -15 14 C-14.34 14 -13.68 14 -13 14 C-13 13.34 -13 12.68 -13 12 C-11.625 10.375 -11.625 10.375 -10 9 C-9.34 9 -8.68 9 -8 9 C-7.67 8.01 -7.34 7.02 -7 6 C-6.01 6 -5.02 6 -4 6 C-3.566875 5.071875 -3.566875 5.071875 -3.125 4.125 C-2 2 -2 2 0 0 Z " fill="#B9B9B9" transform="translate(225,140)"/>
<path d="M0 0 C0.99 0 1.98 0 3 0 C2.88909054 3.35478581 2.75871222 6.70855176 2.625 10.0625 C2.5940625 11.00544922 2.563125 11.94839844 2.53125 12.91992188 C2.30731646 18.27566579 1.73292417 22.92098241 0 28 C-0.33 28 -0.66 28 -1 28 C-0.67 18.76 -0.34 9.52 0 0 Z " fill="#F1F1F1" transform="translate(190,120)"/>
<path d="M0 0 C5.17741914 2.1180351 7.37209514 6.25431299 10 11 C10.9072414 13.3536923 11.47309426 15.52354305 12 18 C11.34 18 10.68 18 10 18 C9.69707031 17.43152344 9.39414063 16.86304688 9.08203125 16.27734375 C6.96638067 12.37803699 4.82530299 8.63483891 2.1875 5.0625 C0 2 0 2 0 0 Z " fill="#ABABAB" transform="translate(196,255)"/>
<path d="M0 0 C4.44005617 6.66008426 3.05155454 15.3964518 2 23 C1.34 23 0.68 23 0 23 C0 15.41 0 7.82 0 0 Z " fill="#767676" transform="translate(190,97)"/>
<path d="M0 0 C6.86476118 1.08918967 12.77470211 2.90238801 19 6 C15.42724029 7.25552169 13.09371195 6.72908409 9.5 5.6875 C8.5615625 5.42324219 7.623125 5.15898437 6.65625 4.88671875 C4.29212856 4.09751939 2.18866479 3.18208546 0 2 C0 1.34 0 0.68 0 0 Z " fill="#A3A3A3" transform="translate(121,199)"/>
<path d="M0 0 C0.66 0 1.32 0 2 0 C-0.07376792 4.66597781 -2.74167343 8.16111562 -7 11 C-7.33 11.680625 -7.66 12.36125 -8 13.0625 C-9 15 -9 15 -12 16 C-11.40300869 12.66864109 -10.27987719 10.78724333 -8.0625 8.25 C-7.27552734 7.32960937 -7.27552734 7.32960937 -6.47265625 6.390625 C-5 5 -5 5 -3 5 C-2.67 4.01 -2.34 3.02 -2 2 C-1.34 2 -0.68 2 0 2 C0 1.34 0 0.68 0 0 Z " fill="#AAAAAA" transform="translate(144,245)"/>
<path d="M0 0 C0.99 0.33 1.98 0.66 3 1 C2.195625 1.763125 1.39125 2.52625 0.5625 3.3125 C-2.16799024 5.79430898 -2.16799024 5.79430898 -3 9 C-8.37142857 13 -8.37142857 13 -11 13 C-10.00102287 10.00306862 -9.34869747 8.97290587 -7 7 C-6.34 7 -5.68 7 -5 7 C-4.67 6.01 -4.34 5.02 -4 4 C-3.34 4 -2.68 4 -2 4 C-1.34 2.68 -0.68 1.36 0 0 Z " fill="#A4A4A4" transform="translate(158,231)"/>
<path d="M0 0 C1.2921408 2.5842816 0.83147839 3.69220259 0.2578125 6.5 C0.07863281 7.386875 -0.10054687 8.27375 -0.28515625 9.1875 C-0.47980469 10.115625 -0.67445313 11.04375 -0.875 12 C-1.06191406 12.928125 -1.24882812 13.85625 -1.44140625 14.8125 C-2.85498768 21.70997537 -2.85498768 21.70997537 -4 24 C-4.66 24 -5.32 24 -6 24 C-6.31616848 19.67903076 -5.64768983 16.90150785 -3.796875 13.0078125 C-2.51878992 9.78753931 -2.01578105 6.44251805 -1.4296875 3.0390625 C-1 1 -1 1 0 0 Z " fill="#7B7B7B" transform="translate(148,57)"/>
<path d="M0 0 C0.93045933 2.55144824 1.08564091 3.74006478 0.22265625 6.359375 C-0.16019531 7.14828125 -0.54304687 7.9371875 -0.9375 8.75 C-1.31777344 9.54921875 -1.69804687 10.3484375 -2.08984375 11.171875 C-2.39019531 11.77515625 -2.69054687 12.3784375 -3 13 C-3.66 13 -4.32 13 -5 13 C-5 13.99 -5 14.98 -5 16 C-6.32 16.33 -7.64 16.66 -9 17 C-7.21873667 13.3655031 -5.29802134 9.81115063 -3.375 6.25 C-2.88773438 5.34701172 -2.88773438 5.34701172 -2.390625 4.42578125 C-1.59429415 2.95022703 -0.79722161 1.47507314 0 0 Z " fill="#A4A4A4" transform="translate(183,168)"/>
<path d="M0 0 C5.24972347 4.10037573 9.20962911 8.52964787 13 14 C10 14 10 14 8.3125 12.625 C7 11 7 11 7 9 C6.34 9 5.68 9 5 9 C5 8.34 5 7.68 5 7 C4.01 6.67 3.02 6.34 2 6 C0.8125 2.9375 0.8125 2.9375 0 0 Z " fill="#BDBDBD" transform="translate(79,165)"/>
<path d="M0 0 C0.66 0.33 1.32 0.66 2 1 C1.773125 2.093125 1.54625 3.18625 1.3125 4.3125 C0.5841746 7.90092967 0.5841746 7.90092967 2.4375 9.8125 C2.953125 10.204375 3.46875 10.59625 4 11 C4 11.66 4 12.32 4 13 C5.32 13.66 6.64 14.32 8 15 C4.56466156 14.70554242 2.97701716 13.98263518 0.1875 11.875 C-2.53543691 8.29628291 -2.58096536 6.39873772 -2 2 C-1.34 1.34 -0.68 0.68 0 0 Z " fill="#C4C4C4" transform="translate(190,220)"/>
<path d="M0 0 C3.37663282 0.48237612 4.46886856 1.81958496 6.625 4.375 C6.295 5.365 5.965 6.355 5.625 7.375 C3.625 6 3.625 6 1.625 4.375 C1.625 3.715 1.625 3.055 1.625 2.375 C0.635 2.375 -0.355 2.375 -1.375 2.375 C-1.705 3.365 -2.035 4.355 -2.375 5.375 C-4.4375 6.0625 -4.4375 6.0625 -6.375 6.375 C-3.67045455 0.57954545 -3.67045455 0.57954545 0 0 Z " fill="#B0B0B0" transform="translate(166.375,224.625)"/>
<path d="M0 0 C3.15543521 1.36303897 4.93188133 2.8182613 7.0625 5.5 C9.00872186 7.93664912 10.33393182 9.22262121 13 11 C13 11.66 13 12.32 13 13 C9.66272214 11.82744291 7.22562513 10.81131596 5 8 C5 7.34 5 6.68 5 6 C4.360625 5.7525 3.72125 5.505 3.0625 5.25 C1 4 1 4 0.25 1.875 C0.1675 1.25625 0.085 0.6375 0 0 Z " fill="#B2B2B2" transform="translate(133,305)"/>
<path d="M0 0 C-1.32 0.33 -2.64 0.66 -4 1 C-4 1.66 -4 2.32 -4 3 C-5.03060547 3.29003906 -5.03060547 3.29003906 -6.08203125 3.5859375 C-6.98308594 3.84632813 -7.88414063 4.10671875 -8.8125 4.375 C-10.15248047 4.75785156 -10.15248047 4.75785156 -11.51953125 5.1484375 C-14.20467896 5.95266661 -14.20467896 5.95266661 -17 8 C-17.66 7.34 -18.32 6.68 -19 6 C-17.3970947 5.18501438 -15.79262722 4.37310073 -14.1875 3.5625 C-13.29417969 3.11003906 -12.40085937 2.65757812 -11.48046875 2.19140625 C-7.44543835 0.25332078 -4.43936649 -0.09865259 0 0 Z " fill="#C4C4C4" transform="translate(83,214)"/>
<path d="M0 0 C0.66 0.33 1.32 0.66 2 1 C0.46395304 4.14191424 -1.05731159 7.08596738 -3 10 C-3.66 10 -4.32 10 -5 10 C-5.66 11.98 -6.32 13.96 -7 16 C-7.66 16 -8.32 16 -9 16 C-8.1875 12.5625 -8.1875 12.5625 -7 9 C-6.01 8.67 -5.02 8.34 -4 8 C-2.89363605 5.60931266 -2.89363605 5.60931266 -2 3 C-1.34 2.01 -0.68 1.02 0 0 Z " fill="#A8A8A8" transform="translate(207,158)"/>
<path d="M0 0 C2.31949743 0.2023329 4.63203667 0.4871605 6.9375 0.8125 C8.83822266 1.06966797 8.83822266 1.06966797 10.77734375 1.33203125 C14 2 14 2 16 4 C5.44191344 3.03644647 5.44191344 3.03644647 1 2 C1.33 4.97 1.66 7.94 2 11 C1.34 10.67 0.68 10.34 0 10 C-0.44921875 7.96875 -0.44921875 7.96875 -0.6875 5.5 C-0.77386719 4.6853125 -0.86023437 3.870625 -0.94921875 3.03125 C-0.96597656 2.3609375 -0.98273437 1.690625 -1 1 C-0.67 0.67 -0.34 0.34 0 0 Z " fill="#E4E4E4" transform="translate(61,121)"/>
<path d="M0 0 C-0.33 0.66 -0.66 1.32 -1 2 C-3.40884463 2.64750694 -5.74175675 3.17062495 -8.1875 3.625 C-8.84814453 3.7590625 -9.50878906 3.893125 -10.18945312 4.03125 C-14.17910542 4.80318667 -17.94095829 5.13887857 -22 5 C-21.67 4.34 -21.34 3.68 -21 3 C-18.92578125 2.65625 -18.92578125 2.65625 -16.3125 2.5 C-10.65396175 2.05666723 -5.67692371 -0.33393669 0 0 Z " fill="#CCCCCC" transform="translate(133,235)"/>
<path d="M0 0 C4.2075169 2.52451014 6.99431476 4.46081762 9 9 C9.6875 12.8125 9.6875 12.8125 10 16 C5.94382492 11.19268139 2.00270365 6.00811095 0 0 Z " fill="#A2A2A2" transform="translate(174,36)"/>
<path d="M0 0 C0.66 0 1.32 0 2 0 C1.80664062 0.53367187 1.61328125 1.06734375 1.4140625 1.6171875 C-0.58697448 7.34292699 -1.94084244 13.03133562 -3 19 C-3.33 19 -3.66 19 -4 19 C-4.43623812 12.31101546 -3.00931022 6.01862043 0 0 Z " fill="#C1C1C1" transform="translate(130,262)"/>
<path d="M0 0 C1.32 0.66 2.64 1.32 4 2 C4.3125 5.1875 4.3125 5.1875 4 9 C1.5 11.9375 1.5 11.9375 -1 14 C-1.66 13.67 -2.32 13.34 -3 13 C-2.01 12.67 -1.02 12.34 0 12 C0.19573608 10.56359829 0.38127816 9.12580496 0.5625 7.6875 C0.71912109 6.48673828 0.71912109 6.48673828 0.87890625 5.26171875 C1.14755178 2.83182884 1.14755178 2.83182884 0 0 Z " fill="#C0C0C0" transform="translate(266,220)"/>
<path d="M0 0 C1.3805087 3.76668598 0.59568159 6.44789173 -0.4375 10.25 C-0.72496094 11.32765625 -1.01242188 12.4053125 -1.30859375 13.515625 C-1.53675781 14.33546875 -1.76492187 15.1553125 -2 16 C-2.99 16 -3.98 16 -5 16 C-4.54762239 14.08191891 -4.08785537 12.16557967 -3.625 10.25 C-3.24214844 8.64898437 -3.24214844 8.64898437 -2.8515625 7.015625 C-2.12466459 4.44147278 -1.2973776 2.32399814 0 0 Z " fill="#ABABAB" transform="translate(191,187)"/>
<path d="M0 0 C0.66 0 1.32 0 2 0 C3.75163456 3.77222089 4.22490027 6.666639 4.125 10.8125 C4.10695312 11.78832031 4.08890625 12.76414063 4.0703125 13.76953125 C4.03550781 14.87361328 4.03550781 14.87361328 4 16 C3.67 16 3.34 16 3 16 C2.51171875 13.98177083 2.0234375 11.96354167 1.53515625 9.9453125 C1.05153008 7.9414343 1.05153008 7.9414343 0 6 C-0.039992 4.00039988 -0.04346799 1.99952758 0 0 Z " fill="#868686" transform="translate(142,139)"/>
<path d="M0 0 C4.60218973 0.54787973 7.89665255 1.90467364 12 4 C14.73572585 4.69907414 14.73572585 4.69907414 17 5 C15.328125 6.1171875 15.328125 6.1171875 13 7 C10.421875 6.3203125 10.421875 6.3203125 7.75 5.125 C6.85796875 4.73570312 5.9659375 4.34640625 5.046875 3.9453125 C4.37140625 3.63335937 3.6959375 3.32140625 3 3 C3 2.34 3 1.68 3 1 C2.01 0.67 1.02 0.34 0 0 Z " fill="#B0B0B0" transform="translate(146,318)"/>
<path d="M0 0 C4.45063794 3.62644573 7.00679143 8.69839195 9 14 C9.140625 16.81640625 9.140625 16.81640625 9 19 C8.731875 18.4225 8.46375 17.845 8.1875 17.25 C7.09850737 15.00786913 7.09850737 15.00786913 5.625 13.3125 C3.03153419 9.62179866 0 4.60301032 0 0 Z " fill="#CCCCCC" transform="translate(132,169)"/>
<path d="M0 0 C0.66 0.33 1.32 0.66 2 1 C-0.31 5.29 -2.62 9.58 -5 14 C-6.09804516 9.60781937 -5.97472734 8.85542004 -4 5 C-2.71332828 3.29705213 -1.38903267 1.62053812 0 0 Z " fill="#B4B4B4" transform="translate(157,34)"/>
<path d="M0 0 C0.33 0 0.66 0 1 0 C1.12117188 0.84304688 1.24234375 1.68609375 1.3671875 2.5546875 C1.53476563 3.65039062 1.70234375 4.74609375 1.875 5.875 C2.03742188 6.96554687 2.19984375 8.05609375 2.3671875 9.1796875 C2.76256513 12.11932714 2.76256513 12.11932714 5 14 C5 15.32 5 16.64 5 18 C4.34 18 3.68 18 3 18 C1.15433468 14.01606389 0.63977171 10.55623317 0.375 6.1875 C0.30023438 5.02605469 0.22546875 3.86460937 0.1484375 2.66796875 C0.09945312 1.78753906 0.05046875 0.90710938 0 0 Z " fill="#C7C7C7" transform="translate(126,282)"/>
<path d="M0 0 C1 3 1 3 0.328125 5.0078125 C-0.02765625 5.70648438 -0.3834375 6.40515625 -0.75 7.125 C-1.26820313 8.18074219 -1.26820313 8.18074219 -1.796875 9.2578125 C-3 11 -3 11 -6 12 C-4.66666667 8.66666667 -3.33333333 5.33333333 -2 2 C-1.34 2 -0.68 2 0 2 C0 1.34 0 0.68 0 0 Z " fill="#BDBDBD" transform="translate(197,174)"/>
<path d="M0 0 C2.4375 0.8125 2.4375 0.8125 5 2 C5.33 2.99 5.66 3.98 6 5 C8.00016466 6.20882096 8.00016466 6.20882096 10 7 C9.67 7.66 9.34 8.32 9 9 C5.7 6.69 2.4 4.38 -1 2 C-0.67 1.34 -0.34 0.68 0 0 Z " fill="#CACACA" transform="translate(92,180)"/>
<path d="M0 0 C2.475 0.99 2.475 0.99 5 2 C5 2.66 5 3.32 5 4 C5.804375 4.268125 6.60875 4.53625 7.4375 4.8125 C8.283125 5.204375 9.12875 5.59625 10 6 C10.33 6.99 10.66 7.98 11 9 C10.34 9 9.68 9 9 9 C9 8.34 9 7.68 9 7 C8.2575 6.731875 7.515 6.46375 6.75 6.1875 C4.10938051 5.04723249 2.14447156 3.90619694 0 2 C0 1.34 0 0.68 0 0 Z " fill="#CBCBCB" transform="translate(101,137)"/>
<path d="M0 0 C0.66 0 1.32 0 2 0 C1.52060632 4.71403788 1.03165952 8.66579301 -1 13 C-1.66 12.67 -2.32 12.34 -3 12 C-2.01 8.04 -1.02 4.08 0 0 Z " fill="#CECECE" transform="translate(268,132)"/>
<path d="M0 0 C0.66 1.65 1.32 3.3 2 5 C-0.31 5 -2.62 5 -5 5 C-5 4.01 -5 3.02 -5 2 C-2 0 -2 0 0 0 Z " fill="#333333" transform="translate(242,133)"/>
<path d="M0 0 C6.4 0.49230769 6.4 0.49230769 9.4375 3.0625 C10.2109375 4.0215625 10.2109375 4.0215625 11 5 C9.54096742 4.69078116 8.08279278 4.37751201 6.625 4.0625 C5.81289062 3.88847656 5.00078125 3.71445313 4.1640625 3.53515625 C2 3 2 3 0 2 C0 1.34 0 0.68 0 0 Z " fill="#D7D7D7" transform="translate(77,125)"/>
<path d="M0 0 C1 2 1 2 0.875 4.375 C-0.26735106 7.80205319 -2.08114387 8.97925345 -5 11 C-4.34 8.69 -3.68 6.38 -3 4 C-2.34 4 -1.68 4 -1 4 C-0.67 2.68 -0.34 1.36 0 0 Z " fill="#3E3E3E" transform="translate(201,170)"/>
<path d="M0 0 C0.33 0.99 0.66 1.98 1 3 C-3.75 7.875 -3.75 7.875 -6 9 C-5.33333333 7.66666667 -4.66666667 6.33333333 -4 5 C-3.67 4.278125 -3.34 3.55625 -3 2.8125 C-2 1 -2 1 0 0 Z " fill="#9C9C9C" transform="translate(259,155)"/>
<path d="M0 0 C7.56634615 -0.37211538 7.56634615 -0.37211538 9.76171875 1.51171875 C10.17035156 2.00285156 10.57898438 2.49398437 11 3 C9.54077307 2.88590407 8.08259402 2.75834456 6.625 2.625 C5.40683594 2.52058594 5.40683594 2.52058594 4.1640625 2.4140625 C2 2 2 2 0 0 Z " fill="#C7C7C7" transform="translate(198,235)"/>
<path d="M0 0 C0.66 0 1.32 0 2 0 C2.66 2.97 3.32 5.94 4 9 C3.01 9 2.02 9 1 9 C0.67 6.03 0.34 3.06 0 0 Z " fill="#C8C8C8" transform="translate(184,53)"/>
<path d="M0 0 C0.66 0 1.32 0 2 0 C2 0.66 2 1.32 2 2 C5.3 2 8.6 2 12 2 C12 2.33 12 2.66 12 3 C7.05 3 2.1 3 -3 3 C-2.01 2.01 -1.02 1.02 0 0 Z " fill="#9C9C9C" transform="translate(104,211)"/>
<path d="M0 0 C2.97 0.33 5.94 0.66 9 1 C9 1.33 9 1.66 9 2 C7.35 2 5.7 2 4 2 C4 2.66 4 3.32 4 4 C2.35 3.67 0.7 3.34 -1 3 C-0.67 2.01 -0.34 1.02 0 0 Z " fill="#666666" transform="translate(187,203)"/>
<path d="M0 0 C3.93846154 4.30769231 3.93846154 4.30769231 4.25 7.8125 C4.1675 8.534375 4.085 9.25625 4 10 C3.34 10 2.68 10 2 10 C0.68373308 6.38026598 0 3.90432869 0 0 Z " fill="#BCBCBC" transform="translate(141,188)"/>
<path d="M0 0 C0.66 0.33 1.32 0.66 2 1 C-3.625 5 -3.625 5 -7 5 C-7 4.34 -7 3.68 -7 3 C-4.69631264 1.93347808 -2.35981813 0.93578995 0 0 Z " fill="#AAAAAA" transform="translate(235,135)"/>
<path d="M0 0 C0.99 0 1.98 0 3 0 C2.67 2.97 2.34 5.94 2 9 C1.34 9 0.68 9 0 9 C0 6.03 0 3.06 0 0 Z " fill="#B1B1B1" transform="translate(190,120)"/>
<path d="M0 0 C4.40114397 0.50298788 6.71195019 2.08772731 10 5 C6.28111761 4.49287967 3.26545761 3.88391785 0 2 C0 1.34 0 0.68 0 0 Z " fill="#CFCFCF" transform="translate(121,199)"/>
<path d="M0 0 C0.99 0.33 1.98 0.66 3 1 C4.1875 4.5625 4.1875 4.5625 5 8 C3.0625 7.375 3.0625 7.375 1 6 C0.25 2.875 0.25 2.875 0 0 Z " fill="#9A9A9A" transform="translate(150,172)"/>
<path d="M0 0 C0.66 0 1.32 0 2 0 C1.8125 1.8125 1.8125 1.8125 1 4 C-1.4375 5.8125 -1.4375 5.8125 -4 7 C-4.66 6.67 -5.32 6.34 -6 6 C-4 4 -2 2 0 0 Z " fill="#CACACA" transform="translate(197,312)"/>
<path d="M0 0 C0.99 0.33 1.98 0.66 3 1 C0.63707344 3.52588702 -0.66462511 4.88820837 -4 6 C-4.33 5.34 -4.66 4.68 -5 4 C-2.6875 1.9375 -2.6875 1.9375 0 0 Z " fill="#D0D0D0" transform="translate(141,229)"/>
<path d="M0 0 C-0.33 0.99 -0.66 1.98 -1 3 C-1.99 3.309375 -2.98 3.61875 -4 3.9375 C-4.99 4.288125 -5.98 4.63875 -7 5 C-7.96877057 7.03243548 -7.96877057 7.03243548 -8 9 C-8.375 6.75 -8.375 6.75 -8 4 C-3.02702703 0 -3.02702703 0 0 0 Z " fill="#424242" transform="translate(198,219)"/>
<path d="M0 0 C1.7074998 1.28062485 3.37373596 2.61767557 5 4 C5 4.66 5 5.32 5 6 C5.66 6.33 6.32 6.66 7 7 C3.76509224 6.44225728 2.02144994 5.62788492 0 3 C0 2.01 0 1.02 0 0 Z " fill="#CBCBCB" transform="translate(173,230)"/>
<path d="M0 0 C0.33 0 0.66 0 1 0 C1.25 2.25 1.25 2.25 1 5 C-1 7.3125 -1 7.3125 -3 9 C-2.44271087 5.65626525 -1.64826111 2.96687001 0 0 Z " fill="#222222" transform="translate(195,185)"/>
<path d="M0 0 C2.7972908 2.06756277 3.02692273 3.14440371 3.6875 6.6875 C3.790625 7.780625 3.89375 8.87375 4 10 C1.2027092 7.93243723 0.97307727 6.85559629 0.3125 3.3125 C0.209375 2.219375 0.10625 1.12625 0 0 Z " fill="#E5E5E5" transform="translate(146,162)"/>
<path d="M0 0 C1.0326802 2.78823655 1.04509293 3.8677274 0.0625 6.75 C-0.288125 7.4925 -0.63875 8.235 -1 9 C-1.33 9 -1.66 9 -2 9 C-2.25 3.375 -2.25 3.375 0 0 Z " fill="#BCBCBC" transform="translate(186,159)"/>
</svg>
